<svg viewBox="0 0 851 146" fill="none" xmlns="http://www.w3.org/2000/svg"><path d="M88.3 46.6v-11H69.8l5-29.6H64l-5 29.5H36.8l5-29.5H31l-5 29.5H8v11.1h16L20 71.2H.5v11.1h17.6L13 111h10.8l5-28.8H51L46.1 111h10.8l5-28.8h18.9V71.1H63.6l4.1-24.4h20.5zM52.9 71.2H30.6L35 46.7H57L53 71zm56.3 74.3h12.6v-45h.6c4 6.7 11.7 12 23 12 21.7 0 32.5-17 32.6-39.7C178 48 165.6 33 145.5 33c-11.4 0-19 5.3-23.1 12h-.6L120 34.4h-11v111zm34.2-44.3c-15.3 0-22-13.2-22-28.3 0-15.3 6.7-28.5 22-28.5 15.9 0 21.9 13 21.9 28.5 0 15.3-6 28.3-22 28.3zM199 111h12.6V73.8c0-18 6.6-28.2 21.1-28.2h6V33.5h-6.9c-9.4 0-17 5.2-20.2 13.8h-.6l-1-13h-11V111zm57.7-92.5h14V3.7h-14v14.8zm.7 92.5H270V34.3h-12.6V111zm38.1 0h12.6V68.7c0-15.5 7.5-24.5 20.3-24.5 12.1 0 17.7 7 17.7 19V111h12.6V61.2c0-17.6-10-28.2-26.9-28.2-11.8 0-19.6 5.5-23.7 13.4h-.6l-1-12h-11V111zm115.2 1.3c11.4 0 19-5.2 23-12h.7L436 111h11V0h-12.6v45h-.6c-4-6.8-11.7-12-23.1-12-21.6 0-32.4 17-32.6 39.6.2 24.8 12.5 39.8 32.6 39.8zm2-11.2c-15.8 0-21.8-13-21.8-28.5 0-15.3 6-28.3 21.9-28.3 15.3 0 21.9 13.2 21.9 28.3 0 15.3-6.6 28.5-22 28.5zm88.6 11.3c16.3 0 29.8-9.5 32-23.6h-12.7c-2 8.1-9.3 12.3-19.3 12.3-14.3 0-21.6-10-21.6-24.6h54.6v-6.2C534.3 49 522.7 33 501 33c-23.7 0-34.6 17.5-34.6 39.8 0 22.5 12.1 39.5 34.8 39.5zM479.8 66c.5-12 7-21.8 21.3-21.8 13.7 0 20.1 9.6 20.1 21.8h-41.4zm92.9 45h13l29.7-75.2v-1.4h-13l-22.7 61.9h-.6l-23.5-62h-13V36l30 75.1zm78.5 1.3c10.8 0 19.4-4.3 24-12.1h.6l1 10.8h10.6V59.4c0-14.5-10.4-26.4-30-26.4-16.8 0-29.1 9.8-29.1 24.5h12.1c.2-7.4 5.7-13.7 17-13.7 12.4 0 17.7 7.4 17.7 15.9v5h-19c-22.4 0-31.6 11-31.6 24 0 13.3 10 23.6 26.7 23.6zm2.3-10.5c-11.1 0-16.2-5.6-16.2-13.3 0-9 6.4-13.8 18.9-13.8H675v6.6c0 11.1-8.6 20.5-21.6 20.5zm59.3 9.2h12.6V0h-12.6v111zm63.5 1.2c11.8 0 19.6-5.5 23.7-13.4h.6l1 12.2h11V34.3H800v42.2c0 15.5-7.5 24.5-20.3 24.5-12.1 0-17.7-7-17.7-19V34.4h-12.6V84c0 17.5 10 28.2 26.9 28.2zM838 111h12.6V0H838v111z" vector-effect="non-scaling-stroke"/></svg>
