<svg width="70" height="55" viewBox="0 0 70 55" fill="none" xmlns="http://www.w3.org/2000/svg">
<path d="M30.9062 20.9219C30.9062 25.2188 29.9622 29.1576 28.0742 32.7383C26.1862 36.2539 23.9727 39.3138 21.4336 41.918C18.8294 44.5872 15.9648 46.9961 12.8398 49.1445C9.71484 51.2279 7.20833 52.7578 5.32031 53.7344L2 47.9727C4.66927 46.4102 7.20833 44.8151 9.61719 43.1875C12.0911 41.4948 13.9792 39.8997 15.2812 38.4023C17.0391 36.4492 18.4388 34.431 19.4805 32.3477C20.5221 30.1992 21.1732 27.3997 21.4336 23.9492H16.7461C12.6445 23.9492 9.45443 22.9076 7.17578 20.8242C4.89714 18.7409 3.75781 15.8438 3.75781 12.1328C3.75781 9.46354 4.79948 6.95703 6.88281 4.61328C8.96615 2.20443 11.7982 1 15.3789 1C20.9128 1 24.8841 2.85547 27.293 6.56641C29.7018 10.2122 30.9062 14.9974 30.9062 20.9219ZM67.0391 20.9219C67.0391 25.2188 66.0951 29.1576 64.207 32.7383C62.319 36.2539 60.1055 39.3138 57.5664 41.918C54.9622 44.5872 52.0977 46.9961 48.9727 49.1445C45.8477 51.2279 43.3411 52.7578 41.4531 53.7344L38.1328 47.9727C40.8021 46.4102 43.3411 44.8151 45.75 43.1875C48.224 41.4948 50.112 39.8997 51.4141 38.4023C53.1719 36.4492 54.5716 34.431 55.6133 32.3477C56.6549 30.1992 57.306 27.3997 57.5664 23.9492H52.8789C48.7773 23.9492 45.5872 22.9076 43.3086 20.8242C41.0299 18.7409 39.8906 15.8438 39.8906 12.1328C39.8906 9.46354 40.9323 6.95703 43.0156 4.61328C45.099 2.20443 47.931 1 51.5117 1C57.0456 1 61.0169 2.85547 63.4258 6.56641C65.8346 10.2122 67.0391 14.9974 67.0391 20.9219Z" stroke="#DA4032"/>
</svg>
