<svg width="156" height="72" viewBox="0 0 156 72" fill="none" xmlns="http://www.w3.org/2000/svg">
  <path d="M45.2301 29.088C44.7801 28.8094 44.1887 28.6037 43.4644 28.4451L40.8416 27.8794C37.7302 27.2108 35.7244 25.8223 35.7244 22.788C35.7244 19.7537 38.2187 17.748 42.3073 17.748C46.2673 17.748 49.0187 20.0109 49.0444 23.328H45.9844C45.8816 21.6823 44.7501 20.4736 42.2558 20.4736C40.0186 20.4736 38.8358 21.2966 38.8358 22.788C38.8358 23.9194 39.6587 24.6394 41.4587 25.0251L43.9015 25.5394C46.5201 26.0837 48.3801 27.1637 49.0658 29.088H45.2301ZM66.2729 20.7051H60.8472V29.088H57.8129V20.7051H52.3873V17.9794H66.2729V20.7051ZM81.4487 29.088H78.2301L75.5301 21.1422H75.4272L72.7272 29.088H69.6029L73.6273 17.9794H77.4072L81.4487 29.088ZM86.6601 29.088C86.5615 28.4365 86.51 27.7465 86.51 27.0308C86.51 21.6308 89.3387 17.748 94.7387 17.748C99.2129 17.748 101.964 20.4223 102.324 23.9709H99.2387C98.9815 22.0423 97.5672 20.5251 94.7387 20.5251C91.0615 20.5251 89.5958 23.4051 89.5958 27.0308C89.5958 27.7551 89.6558 28.4451 89.7758 29.088H86.6601ZM102.517 29.088H95.2529V26.4137H102.556V28.1366C102.556 28.4623 102.543 28.7794 102.517 29.088ZM110.321 29.088H107.287V17.9794H110.321V29.088ZM119.116 29.088H116.081V17.9794H119.116V29.088Z" fill="white"/>
  <path d="M65.5458 53.991H74.4772C78 53.991 80.2115 52.0881 80.2115 48.7967C80.2115 46.3281 78.9257 45.0681 77.4858 44.451V44.3481C78.6429 43.731 79.5429 42.6253 79.5429 40.671C79.5429 37.7138 77.3315 35.991 74.22 35.991H65.5458V53.991ZM68.5286 43.371V38.6653H73.8343C75.5829 38.6653 76.4829 39.5138 76.4829 40.9024C76.4829 42.5481 75.4286 43.371 73.6543 43.371H68.5286ZM68.5286 51.291V45.9938H74.04C76.0972 45.9938 77.1258 47.0481 77.1258 48.6424C77.1258 50.2624 75.9943 51.291 74.04 51.291H68.5286Z" fill="#DA4032"/>
  <path d="M91.7629 54.2224C96.0572 54.2224 98.9886 51.7795 98.9886 47.3053V35.991H95.9543V47.2538C95.9543 49.6967 94.7972 51.4967 91.7629 51.4967C88.78 51.4967 87.5972 49.6967 87.5972 47.2538V35.991H84.5886V47.3053C84.5886 51.7795 87.5458 54.2224 91.7629 54.2224Z" fill="#DA4032"/>
  <path d="M104.469 53.991H107.427V40.851H107.529L115.629 53.991H119.101V35.991H116.118V49.2081H116.015L107.915 35.991H104.469V53.991Z" fill="#DA4032"/>
  <path d="M124.883 53.991H137.998V51.291H127.892V46.071H135.795V43.3453H127.892V38.7167H137.998V35.991H124.883V53.991Z" fill="#DA4032"/>
  <path d="M17.9766 54.1054H20.9851V47.8054H25.4916C29.1173 47.8054 31.4315 45.3369 31.4315 41.8912C31.4315 38.5483 29.1687 36.1055 25.4916 36.1055H17.9766V54.1054ZM20.9851 45.0797V38.8055H24.9773C27.0601 38.8055 28.3458 39.9112 28.3458 41.8912C28.3458 43.974 27.1373 45.0797 24.9773 45.0797H20.9851Z" fill="#DA4032"/>
  <path d="M35.9531 54.1054H49.0674V51.4054H38.9617V46.1854H46.8645V43.4597H38.9617V38.8312H49.0674V36.1055H35.9531V54.1054Z" fill="#DA4032"/>
</svg>